<?xml version="1.0" encoding="utf-8"?>
<!-- Generator: Adobe Illustrator 14.0.0, SVG Export Plug-In . SVG Version: 6.00 Build 43363)  -->
<!DOCTYPE svg PUBLIC "-//W3C//DTD SVG 1.1//EN" "http://www.w3.org/Graphics/SVG/1.1/DTD/svg11.dtd" [
	<!ENTITY ns_flows "http://ns.adobe.com/Flows/1.0/">
	<!ENTITY ns_extend "http://ns.adobe.com/Extensibility/1.0/">
	<!ENTITY ns_ai "http://ns.adobe.com/AdobeIllustrator/10.0/">
	<!ENTITY ns_graphs "http://ns.adobe.com/Graphs/1.0/">
]>
<svg version="1.1" id="Layer_1" xmlns:x="&ns_extend;" xmlns:i="&ns_ai;" xmlns:graph="&ns_graphs;"
	 xmlns="http://www.w3.org/2000/svg" xmlns:xlink="http://www.w3.org/1999/xlink" xmlns:a="http://ns.adobe.com/AdobeSVGViewerExtensions/3.0/"
	 x="0px" y="0px" width="352px" height="112px" viewBox="0 0 352 112" enable-background="new 0 0 352 112" xml:space="preserve">
<g>
	<path fill="#0092D0" d="M326,56c0-13.408-23.368-24.277-52.196-24.277c-4.173,0-8.227,0.226-12.116,0.656
		c2.683-0.204,5.438-0.309,8.247-0.309c28.134,0,50.942,10.609,50.942,23.695c0,13.086-22.808,23.693-50.942,23.693
		c-7.419,0-14.464-0.738-20.821-2.065c7.35,1.841,15.757,2.884,24.69,2.884C302.632,80.277,326,69.408,326,56"/>
	<path fill="#0061A1" d="M296.941,38.683c-7.711-2.75-17.361-4.386-27.832-4.386c-25.279,0-45.771,9.533-45.771,21.288
		c0,11.76,18.931,21.292,45.771,21.292c6.255,0,12.214-0.584,17.644-1.64c-4.514,0.725-9.362,1.115-14.405,1.115
		c-24.424,0-44.224-9.208-44.224-20.569c0-11.359,19.8-20.57,44.224-20.57C281.451,35.212,289.909,36.493,296.941,38.683"/>
	<polygon fill="#0061A1" points="243.417,72.405 258.15,57.819 245.156,57.819 245.156,53.354 258.15,53.354 243.606,38.909 
		248.494,37.44 265.428,54.469 265.428,34.625 284.025,53.354 301.814,53.354 306.938,55.587 301.814,58.098 284.025,58.098 
		266.001,76.48 265.428,76.603 265.428,56.702 248.522,73.696 	"/>
	<path fill="#0061A1" d="M146.246,57.916h-14.144L139.11,44.2L146.246,57.916z M142.963,37.181h-3.019l-20.058,37.453
		c0.707-0.053,1.414,0,2.25,0c0.771,0,1.478-0.053,2.378,0c1.8-5.037,4.115-8.983,6.365-13.697h16.333
		c2.571,4.875,4.886,9.248,6.75,13.697c1.094-0.053,2.187,0,3.407,0c1.093,0,3.662-0.053,4.883,0L142.963,37.181z"/>
	<path fill="#0061A1" d="M26,74.634c0.9-0.055,1.864,0,2.83,0c0.898,0,3.836-0.055,4.865,0V56.738h0.406l5.145,5.036l7.586,8.198
		c1.35,1.5,2.636,3.002,4.05,4.662c1.157-0.055,2.444,0,3.665,0c1.223,0,2.38-0.055,3.73,0l-1.223-1.339l-3.084-3.001L40.724,56.309
		c6.495-0.963,13.951-3.196,13.951-9.41c0-5.413-5.142-8.914-15.044-8.914H26V74.634z M33.695,39.967
		c2.701-0.107,5.035-0.268,7.415,0.052c4.822,0.644,7.072,3.055,7.072,6.752c0,4.18-3.537,6.859-8.229,7.662
		c-3.281,0.536-5.357,0.321-6.258,0.268V39.967z"/>
	<path fill="#0061A1" d="M85.583,57.916H71.438L78.447,44.2L85.583,57.916z M82.3,37.181h-3.019L59.223,74.634
		c0.706-0.053,1.414,0,2.25,0c0.771,0,1.478-0.053,2.378,0c1.8-5.037,4.115-8.983,6.367-13.697h16.331
		c2.571,4.875,4.886,9.248,6.75,13.697c1.093-0.053,2.187,0,3.407,0c1.094,0,3.663-0.053,4.883,0L82.3,37.181z"/>
	<path fill="#0061A1" d="M103.198,74.634c0.899-0.053,1.863,0,2.829,0c0.898,0,3.836-0.053,4.866,0V57.078h15.189v-3.126h-15.189
		V41.274h2.914h13.754v-3.289h-24.364V74.634z"/>
	<polygon fill="#0061A1" points="171.967,41.273 174.881,41.273 188.637,41.273 188.637,37.986 164.271,37.986 164.271,74.472 
		189.022,74.472 189.022,71.186 171.967,71.186 171.967,57.079 179.896,57.079 187.156,57.079 187.156,53.952 179.896,53.952 
		171.967,53.952 	"/>
	<path fill="#0061A1" d="M201.097,37.985c-1.03,0.053-3.909,0-4.808,0c-0.964,0-1.93,0.053-2.831,0v36.489h25.713v-3.289h-18.074
		V37.985z"/>
</g>
</svg>
